{
    "asset" : {
        "generator" : "Khronos glTF Blender I/O v1.7.33",
        "version" : "2.0"
    },
    "scene" : 0,
    "scenes" : [
        {
            "name" : "Scene",
            "nodes" : [
                0,
                1
            ]
        }
    ],
    "nodes" : [
        {
            "mesh" : 0,
            "name" : "\u0424\u0438\u0433\u0443\u0440\u0430_2",
            "rotation" : [
                0,
                0,
                -0.008726535364985466,
                0.9999619126319885
            ],
            "translation" : [
                0,
                1,
                0
            ]
        },
        {
            "mesh" : 1,
            "name" : "Text",
            "rotation" : [
                0,
                0.008877715095877647,
                0,
                0.9999606013298035
            ],
            "scale" : [
                0.2547423839569092,
                1,
                0.2013835310935974
            ],
            "translation" : [
                0.27539870142936707,
                0.009999999776482582,
                0.00028419430600479245
            ]
        }
    ],
    "animations" : [
        {
            "channels" : [
                {
                    "sampler" : 0,
                    "target" : {
                        "node" : 0,
                        "path" : "translation"
                    }
                },
                {
                    "sampler" : 1,
                    "target" : {
                        "node" : 0,
                        "path" : "rotation"
                    }
                }
            ],
            "name" : "\u0424\u0438\u0433\u0443\u0440\u0430_2Action.003",
            "samplers" : [
                {
                    "input" : 20,
                    "interpolation" : "LINEAR",
                    "output" : 21
                },
                {
                    "input" : 20,
                    "interpolation" : "LINEAR",
                    "output" : 22
                }
            ]
        }
    ],
    "materials" : [
        {
            "doubleSided" : true,
            "name" : "SVGMat.003",
            "pbrMetallicRoughness" : {
                "baseColorFactor" : [
                    0.0027317428030073643,
                    0.23839756846427917,
                    0.2462013214826584,
                    1
                ],
                "metallicFactor" : 0,
                "roughnessFactor" : 0.4000000059604645
            }
        },
        {
            "doubleSided" : true,
            "name" : "SVGMat.004",
            "pbrMetallicRoughness" : {
                "baseColorFactor" : [
                    0.2345505803823471,
                    0.5840784311294556,
                    0.47353148460388184,
                    1
                ],
                "metallicFactor" : 0,
                "roughnessFactor" : 0.4000000059604645
            }
        },
        {
            "doubleSided" : true,
            "name" : "SVGMat.005",
            "pbrMetallicRoughness" : {
                "baseColorFactor" : [
                    0.045186202973127365,
                    0.41788506507873535,
                    0.2961382567882538,
                    1
                ],
                "metallicFactor" : 0,
                "roughnessFactor" : 0.4000000059604645
            }
        },
        {
            "doubleSided" : true,
            "name" : "SVGMat",
            "pbrMetallicRoughness" : {
                "baseColorFactor" : [
                    0.009134061634540558,
                    0.1094617024064064,
                    0.11697071045637131,
                    1
                ],
                "metallicFactor" : 0,
                "roughnessFactor" : 0.4000000059604645
            }
        }
    ],
    "meshes" : [
        {
            "name" : "\u0424\u0438\u0433\u0443\u0440\u0430_2.002",
            "primitives" : [
                {
                    "attributes" : {
                        "POSITION" : 0,
                        "NORMAL" : 1,
                        "TANGENT" : 2,
                        "TEXCOORD_0" : 3
                    },
                    "indices" : 4,
                    "material" : 0
                },
                {
                    "attributes" : {
                        "POSITION" : 5,
                        "NORMAL" : 6,
                        "TANGENT" : 7,
                        "TEXCOORD_0" : 8
                    },
                    "indices" : 9,
                    "material" : 1
                },
                {
                    "attributes" : {
                        "POSITION" : 10,
                        "NORMAL" : 11,
                        "TANGENT" : 12,
                        "TEXCOORD_0" : 13
                    },
                    "indices" : 14,
                    "material" : 2
                }
            ]
        },
        {
            "name" : "Text",
            "primitives" : [
                {
                    "attributes" : {
                        "POSITION" : 15,
                        "NORMAL" : 16,
                        "TANGENT" : 17,
                        "TEXCOORD_0" : 18
                    },
                    "indices" : 19,
                    "material" : 3
                }
            ]
        }
    ],
    "accessors" : [
        {
            "bufferView" : 0,
            "componentType" : 5126,
            "count" : 18,
            "max" : [
                0.06621832400560379,
                9.999999747378752e-06,
                0.07416948676109314
            ],
            "min" : [
                0.0001769736409187317,
                -0.009999999776482582,
                0.0027808845043182373
            ],
            "type" : "VEC3"
        },
        {
            "bufferView" : 1,
            "componentType" : 5126,
            "count" : 18,
            "type" : "VEC3"
        },
        {
            "bufferView" : 2,
            "componentType" : 5126,
            "count" : 18,
            "type" : "VEC4"
        },
        {
            "bufferView" : 3,
            "componentType" : 5126,
            "count" : 18,
            "type" : "VEC2"
        },
        {
            "bufferView" : 4,
            "componentType" : 5123,
            "count" : 24,
            "type" : "SCALAR"
        },
        {
            "bufferView" : 5,
            "componentType" : 5126,
            "count" : 18,
            "max" : [
                0.06650055199861526,
                9.99999883788405e-06,
                0.02761170268058777
            ],
            "min" : [
                0.0004592016339302063,
                -0.009999998845160007,
                -0.04405906796455383
            ],
            "type" : "VEC3"
        },
        {
            "bufferView" : 6,
            "componentType" : 5126,
            "count" : 18,
            "type" : "VEC3"
        },
        {
            "bufferView" : 7,
            "componentType" : 5126,
            "count" : 18,
            "type" : "VEC4"
        },
        {
            "bufferView" : 8,
            "componentType" : 5126,
            "count" : 18,
            "type" : "VEC2"
        },
        {
            "bufferView" : 9,
            "componentType" : 5123,
            "count" : 24,
            "type" : "SCALAR"
        },
        {
            "bufferView" : 10,
            "componentType" : 5126,
            "count" : 28,
            "max" : [
                0.06621832400560379,
                9.999999747378752e-06,
                -0.0006051361560821533
            ],
            "min" : [
                -0.06812220066785812,
                -0.009999999776482582,
                -0.07284024357795715
            ],
            "type" : "VEC3"
        },
        {
            "bufferView" : 11,
            "componentType" : 5126,
            "count" : 28,
            "type" : "VEC3"
        },
        {
            "bufferView" : 12,
            "componentType" : 5126,
            "count" : 28,
            "type" : "VEC4"
        },
        {
            "bufferView" : 13,
            "componentType" : 5126,
            "count" : 28,
            "type" : "VEC2"
        },
        {
            "bufferView" : 14,
            "componentType" : 5123,
            "count" : 36,
            "type" : "SCALAR"
        },
        {
            "bufferView" : 15,
            "componentType" : 5126,
            "count" : 1296,
            "max" : [
                1.1144490242004395,
                0.009999999776482582,
                0.3958378732204437
            ],
            "min" : [
                -0.6145511865615845,
                -0.009999999776482582,
                -0.3041621744632721
            ],
            "type" : "VEC3"
        },
        {
            "bufferView" : 16,
            "componentType" : 5126,
            "count" : 1296,
            "type" : "VEC3"
        },
        {
            "bufferView" : 17,
            "componentType" : 5126,
            "count" : 1296,
            "type" : "VEC4"
        },
        {
            "bufferView" : 18,
            "componentType" : 5126,
            "count" : 1296,
            "type" : "VEC2"
        },
        {
            "bufferView" : 19,
            "componentType" : 5123,
            "count" : 2244,
            "type" : "SCALAR"
        },
        {
            "bufferView" : 20,
            "componentType" : 5126,
            "count" : 50,
            "max" : [
                2.0833333333333335
            ],
            "min" : [
                0.041666666666666664
            ],
            "type" : "SCALAR"
        },
        {
            "bufferView" : 21,
            "componentType" : 5126,
            "count" : 50,
            "type" : "VEC3"
        },
        {
            "bufferView" : 22,
            "componentType" : 5126,
            "count" : 50,
            "type" : "VEC4"
        }
    ],
    "bufferViews" : [
        {
            "buffer" : 0,
            "byteLength" : 216,
            "byteOffset" : 0
        },
        {
            "buffer" : 0,
            "byteLength" : 216,
            "byteOffset" : 216
        },
        {
            "buffer" : 0,
            "byteLength" : 288,
            "byteOffset" : 432
        },
        {
            "buffer" : 0,
            "byteLength" : 144,
            "byteOffset" : 720
        },
        {
            "buffer" : 0,
            "byteLength" : 48,
            "byteOffset" : 864
        },
        {
            "buffer" : 0,
            "byteLength" : 216,
            "byteOffset" : 912
        },
        {
            "buffer" : 0,
            "byteLength" : 216,
            "byteOffset" : 1128
        },
        {
            "buffer" : 0,
            "byteLength" : 288,
            "byteOffset" : 1344
        },
        {
            "buffer" : 0,
            "byteLength" : 144,
            "byteOffset" : 1632
        },
        {
            "buffer" : 0,
            "byteLength" : 48,
            "byteOffset" : 1776
        },
        {
            "buffer" : 0,
            "byteLength" : 336,
            "byteOffset" : 1824
        },
        {
            "buffer" : 0,
            "byteLength" : 336,
            "byteOffset" : 2160
        },
        {
            "buffer" : 0,
            "byteLength" : 448,
            "byteOffset" : 2496
        },
        {
            "buffer" : 0,
            "byteLength" : 224,
            "byteOffset" : 2944
        },
        {
            "buffer" : 0,
            "byteLength" : 72,
            "byteOffset" : 3168
        },
        {
            "buffer" : 0,
            "byteLength" : 15552,
            "byteOffset" : 3240
        },
        {
            "buffer" : 0,
            "byteLength" : 15552,
            "byteOffset" : 18792
        },
        {
            "buffer" : 0,
            "byteLength" : 20736,
            "byteOffset" : 34344
        },
        {
            "buffer" : 0,
            "byteLength" : 10368,
            "byteOffset" : 55080
        },
        {
            "buffer" : 0,
            "byteLength" : 4488,
            "byteOffset" : 65448
        },
        {
            "buffer" : 0,
            "byteLength" : 200,
            "byteOffset" : 69936
        },
        {
            "buffer" : 0,
            "byteLength" : 600,
            "byteOffset" : 70136
        },
        {
            "buffer" : 0,
            "byteLength" : 800,
            "byteOffset" : 70736
        }
    ],
    "buffers" : [
        {
            "byteLength" : 71536,
            "uri" : "data:application/octet-stream;base64,"
        }
    ]
}
